<?xml version="1.0" encoding="UTF-8"?>
<svg xmlns="http://www.w3.org/2000/svg" viewBox="0 0 36.058 33.845" width="36.058" height="33.845">
  <path
    fill="#006647"
    d="M 2.752,18.613 H 9.147 L 8.833,20.311 H 2.437 Z m 8.201,0 h 6.414 l -0.315,1.671 H 10.639 Z M 20.867,0 19.928,5.063 H 11.691 L 9.796,15.215 H 1.593 L 0,23.699 H 8.182 L 6.291,33.845 H 23.514 L 25.43,23.709 h 6.154 L 32.215,20.322 24.237,20.311 22.329,30.47 H 8.721 l 0.307,-1.674 h 11.811 l 1.913,-10.183 9.778,0.008 0.659,-3.374 -11.57,-0.01 -1.917,10.155 H 9.666 l 0.313,-1.7 8.238,0.026 1.593,-8.481 -8.221,-0.022 0.316,-1.7 h 11.811 l 0.973,-5.068 9.757,-0.009 0.64,-3.396 -11.553,0.021 -0.97,5.076 H 12.544 l 0.315,-1.682 h 8.229 L 22.026,3.369 H 35.408 L 36.058,0 Z"
  />
</svg>

